<svg width="250" height="113" viewBox="0 0 250 113" fill="none" xmlns="http://www.w3.org/2000/svg">
<g id="dot pattern">
<circle id="Ellipse 14" cx="5.5" cy="5.5" r="5.5" fill="#1C25FF" fill-opacity="0.25"/>
<circle id="Ellipse 20" cx="5.5" cy="39.5" r="5.5" fill="#1C25FF" fill-opacity="0.25"/>
<circle id="Ellipse 26" cx="5.5" cy="107.5" r="5.5" fill="#1C25FF" fill-opacity="0.25"/>
<circle id="Ellipse 32" cx="5.5" cy="73.5" r="5.5" fill="#1C25FF" fill-opacity="0.25"/>
<circle id="Ellipse 15" cx="53.5" cy="5.5" r="5.5" fill="#1C25FF" fill-opacity="0.25"/>
<circle id="Ellipse 21" cx="53.5" cy="39.5" r="5.5" fill="#1C25FF" fill-opacity="0.25"/>
<circle id="Ellipse 27" cx="53.5" cy="107.5" r="5.5" fill="#1C25FF" fill-opacity="0.25"/>
<circle id="Ellipse 33" cx="53.5" cy="73.5" r="5.5" fill="#1C25FF" fill-opacity="0.25"/>
<circle id="Ellipse 16" cx="101.5" cy="5.5" r="5.5" fill="#1C25FF" fill-opacity="0.25"/>
<circle id="Ellipse 22" cx="101.5" cy="39.5" r="5.5" fill="#1C25FF" fill-opacity="0.25"/>
<circle id="Ellipse 28" cx="101.5" cy="107.5" r="5.5" fill="#1C25FF" fill-opacity="0.25"/>
<circle id="Ellipse 34" cx="101.5" cy="73.5" r="5.5" fill="#1C25FF" fill-opacity="0.25"/>
<circle id="Ellipse 17" cx="149.5" cy="5.5" r="5.5" fill="#1C25FF" fill-opacity="0.25"/>
<circle id="Ellipse 23" cx="149.5" cy="39.5" r="5.5" fill="#1C25FF" fill-opacity="0.25"/>
<circle id="Ellipse 29" cx="149.5" cy="107.5" r="5.5" fill="#1C25FF" fill-opacity="0.25"/>
<circle id="Ellipse 35" cx="149.5" cy="73.5" r="5.5" fill="#1C25FF" fill-opacity="0.25"/>
<circle id="Ellipse 18" cx="197.5" cy="5.5" r="5.5" fill="#1C25FF" fill-opacity="0.25"/>
<circle id="Ellipse 24" cx="197.5" cy="39.5" r="5.5" fill="#1C25FF" fill-opacity="0.25"/>
<circle id="Ellipse 30" cx="197.5" cy="107.5" r="5.5" fill="#1C25FF" fill-opacity="0.25"/>
<circle id="Ellipse 36" cx="197.5" cy="73.5" r="5.5" fill="#1C25FF" fill-opacity="0.25"/>
<circle id="Ellipse 19" cx="244.5" cy="5.5" r="5.5" fill="#1C25FF" fill-opacity="0.25"/>
<circle id="Ellipse 25" cx="244.5" cy="39.5" r="5.5" fill="#1C25FF" fill-opacity="0.25"/>
<circle id="Ellipse 31" cx="244.5" cy="107.5" r="5.5" fill="#1C25FF" fill-opacity="0.25"/>
<circle id="Ellipse 37" cx="244.5" cy="73.5" r="5.5" fill="#1C25FF" fill-opacity="0.25"/>
</g>
</svg>
